<svg preserveAspectRatio="none" overflow="visible" style="display: block;" width="34" height="51" viewBox="0 0 34 51" fill="none" xmlns="http://www.w3.org/2000/svg">
<g id="Frame" clip-path="url(#clip0_0_41)">
<path id="Vector" d="M17 25.5C17 23.2457 17.8955 21.0837 19.4896 19.4896C21.0837 17.8955 23.2457 17 25.5 17C27.7543 17 29.9163 17.8955 31.5104 19.4896C33.1045 21.0837 34 23.2457 34 25.5C34 27.7543 33.1045 29.9163 31.5104 31.5104C29.9163 33.1045 27.7543 34 25.5 34C23.2457 34 21.0837 33.1045 19.4896 31.5104C17.8955 29.9163 17 27.7543 17 25.5Z" fill="#1ABCFE"/>
<path id="Vector_2" d="M0 42.5004C0 40.2461 0.895533 38.0841 2.48959 36.49C4.08365 34.896 6.24566 34.0004 8.5 34.0004H17V42.5004C17 44.7548 16.1045 46.9168 14.5104 48.5108C12.9163 50.1049 10.7543 51.0004 8.5 51.0004C6.24566 51.0004 4.08365 50.1049 2.48959 48.5108C0.895533 46.9168 0 44.7548 0 42.5004Z" fill="#0ACF83"/>
<path id="Vector_3" d="M17 9.78128e-07V17H25.5C27.7543 17 29.9163 16.1045 31.5104 14.5104C33.1045 12.9163 34 10.7543 34 8.5C34 6.24566 33.1045 4.08365 31.5104 2.48959C29.9163 0.895534 27.7543 9.78128e-07 25.5 9.78128e-07L17 9.78128e-07Z" fill="#FF7262"/>
<path id="Vector_4" d="M0 8.5C0 10.7543 0.895533 12.9163 2.48959 14.5104C4.08365 16.1045 6.24566 17 8.5 17H17V0H8.5C6.24566 0 4.08365 0.895533 2.48959 2.48959C0.895533 4.08365 0 6.24566 0 8.5Z" fill="#F24E1E"/>
<path id="Vector_5" d="M0 25.5C0 27.7543 0.895533 29.9163 2.48959 31.5104C4.08365 33.1045 6.24566 34 8.5 34H17V17H8.5C6.24566 17 4.08365 17.8955 2.48959 19.4896C0.895533 21.0837 0 23.2457 0 25.5Z" fill="#A259FF"/>
</g>
<defs>
<clipPath id="clip0_0_41">
<rect width="34" height="51" fill="white"/>
</clipPath>
</defs>
</svg>
